<?xml version="1.0" encoding="utf-8"?>
<svg version="1.1" xmlns="http://www.w3.org/2000/svg" xmlns:xlink="http://www.w3.org/1999/xlink" x="0px" y="0px" viewBox="0 0 372 372" xml:space="preserve">
<style type="text/css">
	.st1{fill:none;stroke:#000000;stroke-miterlimit:10;}
	.st2{fill:#000000;}
	.st3{fill:none;stroke:#000000;stroke-width:8;stroke-linecap:round;stroke-miterlimit:10;}
</style>
<g>
	<path class="st1" d="M36.2,93.4"></path>
	<g>
		<path class="st2" d="M256.9,139.3c-1.2,0-2.4-0.5-3.2-1.6c-5.1-6.7-11.1-12.6-18-17.5c-1.8-1.3-2.2-3.8-0.9-5.6
			c1.3-1.8,3.8-2.2,5.6-0.9c7.5,5.4,14.1,11.8,19.7,19.2c1.3,1.8,1,4.3-0.8,5.6C258.6,139,257.8,139.3,256.9,139.3z"></path>
	</g>
	<g>
		<path class="st2" d="M135.4,262.3c-0.8,0-1.7-0.3-2.4-0.8c-23.2-17.2-37.1-44.7-37.1-73.5c0-43,30.5-80.6,72.5-89.4
			c2.2-0.5,4.3,0.9,4.7,3.1c0.5,2.2-0.9,4.3-3.1,4.7c-38.3,8-66.2,42.4-66.2,81.6c0,26.3,12.7,51.4,33.9,67.1
			c1.8,1.3,2.2,3.8,0.8,5.6C137.8,261.7,136.6,262.3,135.4,262.3z"></path>
	</g>
	<g>
		<path class="st2" d="M206.2,277.3c-1.8,0-3.5-1.3-3.9-3.1c-0.5-2.2,0.9-4.3,3-4.8c19.2-4.3,36.4-15.3,48.4-31.1
			c1.3-1.8,3.8-2.1,5.6-0.8c1.8,1.3,2.1,3.8,0.8,5.6c-13.1,17.3-31.9,29.4-53,34.1C206.8,277.3,206.5,277.3,206.2,277.3z"></path>
	</g>
	<g>
		<path class="st2" d="M285.7,139.3c-1.4,0-2.8-0.8-3.5-2.1c-18.8-35-55.2-56.8-94.9-56.8c-29.8,0-58.5,12.5-78.8,34.3
			c-1.5,1.6-4,1.7-5.7,0.2c-1.6-1.5-1.7-4-0.2-5.7c21.8-23.4,52.6-36.8,84.6-36.8c42.7,0,81.7,23.4,101.9,61c1,1.9,0.3,4.4-1.6,5.4
			C287,139.2,286.3,139.3,285.7,139.3z"></path>
	</g>
	<g>
		<path class="st2" d="M187.2,303.6c-46,0-87.6-27.3-106-69.4c-0.9-2,0-4.4,2.1-5.3c2-0.9,4.4,0,5.3,2.1
			c17.1,39.3,55.9,64.6,98.7,64.6c22,0,43.1-6.6,61.2-19.1c1.8-1.3,4.3-0.8,5.6,1c1.3,1.8,0.8,4.3-1,5.6
			C233.6,296.5,210.9,303.6,187.2,303.6z"></path>
	</g>
	<g>
		<path class="st2" d="M272.9,263.6c-0.9,0-1.8-0.3-2.6-0.9c-1.7-1.4-1.9-3.9-0.5-5.6c5.3-6.3,9.8-13.2,13.5-20.5
			c1-2,3.4-2.8,5.4-1.8s2.8,3.4,1.8,5.4c-4,7.9-8.9,15.3-14.5,22.1C275.1,263.1,274,263.6,272.9,263.6z"></path>
	</g>
	<g>
		<path class="st2" d="M51.9,204.2c-2,0-3.8-1.6-4-3.6c-0.4-4.1-0.6-8.4-0.6-12.6c0-77.1,62.7-139.9,139.9-139.9
			c56.4,0,107.1,33.6,129,85.6c0.9,2-0.1,4.4-2.1,5.2c-2,0.9-4.4-0.1-5.2-2.1c-20.7-49-68.4-80.7-121.6-80.7
			c-72.7,0-131.9,59.2-131.9,131.9c0,3.9,0.2,7.9,0.5,11.8c0.2,2.2-1.4,4.1-3.6,4.3C52.1,204.2,52,204.2,51.9,204.2z"></path>
	</g>
	<g>
		<path class="st2" d="M187.2,327.9c-36.6,0-71.3-14.1-97.5-39.6c-1.6-1.5-1.6-4.1-0.1-5.7s4.1-1.6,5.7-0.1
			c24.8,24.1,57.4,37.4,92,37.4c54.3,0,102.4-32.6,122.5-83.1c0.8-2.1,3.1-3.1,5.2-2.2c2.1,0.8,3.1,3.1,2.2,5.2
			c-10.2,25.7-27.7,47.6-50.6,63.4C243.2,319.3,215.8,327.9,187.2,327.9z"></path>
	</g>
	<g>
		<path class="st2" d="M187.2,352.1c-90.5,0-164.1-73.6-164.1-164.1S96.7,23.9,187.2,23.9c69.1,0,131.3,43.7,154.6,108.8
			c0.7,2.1-0.3,4.4-2.4,5.1s-4.4-0.3-5.1-2.4c-22.2-61.9-81.2-103.5-147-103.5c-86.1,0-156.1,70-156.1,156.1s70,156.1,156.1,156.1
			c67.5,0,127.1-43,148.3-107.1c0.7-2.1,3-3.2,5.1-2.5s3.2,3,2.5,5.1C320.8,306.9,258.2,352.1,187.2,352.1z"></path>
	</g>
	<g>
		<path class="st3" d="M246.4,123.7"></path>
	</g>
	<g>
		<ellipse transform="matrix(0.2638 -0.9646 0.9646 0.2638 -139.7576 225.2142)" class="st2" cx="77.7" cy="204.2" rx="6" ry="6"></ellipse>
	</g>
	<g>
		<circle class="st2" cx="77.6" cy="170.1" r="6"></circle>
	</g>
	<g>
		<circle class="st2" cx="87.6" cy="138.7" r="6"></circle>
	</g>
</g>
</svg>